<svg width="799" height="765" viewBox="0 0 799 765" fill="none" xmlns="http://www.w3.org/2000/svg">
<path d="M387.369 480.024C387.369 455.578 387.329 431.132 387.418 406.686C387.428 403.372 386.896 402.457 383.68 404.414C376.048 409.065 368.258 413.461 360.527 417.965C316.355 443.748 272.203 469.561 228.022 495.305C178.519 524.157 128.987 552.959 79.4252 581.713C76.7204 583.276 76.4942 584.515 78.0187 587.219C98.4571 623.515 118.787 659.86 139.049 696.254C140.524 698.899 141.547 699.44 144.389 697.778C171.437 681.926 198.603 666.281 225.71 650.528C278.292 619.965 330.833 589.314 383.483 558.869C386.523 557.109 387.467 555.378 387.447 552.025C387.31 528.022 387.378 504.028 387.369 480.024Z" fill="#B4F000"/>
<path d="M554.259 306.049C553.374 306.502 552.45 306.915 551.574 307.416C547.522 309.727 543.47 312.038 539.437 314.388C501.521 336.484 463.634 358.639 425.639 380.607C422.315 382.525 422.659 383.439 425.472 385.052C431.403 388.464 437.334 391.896 443.255 395.328C473.401 412.792 503.557 430.237 533.683 447.731C562.698 464.585 591.694 481.489 620.679 498.403C640.075 509.721 659.442 521.099 678.837 532.407C695.843 542.329 712.888 552.173 729.884 562.105C732.245 563.481 733.504 563.452 735.068 560.689C744.195 544.571 753.608 528.621 762.883 512.593C774.302 492.877 785.652 473.131 797.101 453.434C799.934 448.557 799.894 448.449 794.947 445.617C779.141 436.56 763.375 427.415 747.618 418.269C726.048 405.761 704.498 393.214 682.949 380.686C661.517 368.227 640.075 355.777 618.643 343.308C597.851 331.203 577.078 319.079 556.285 306.974C555.666 306.61 554.977 306.364 554.259 306.039V306.049Z" fill="#B4F000"/>
<path d="M410.63 285.252C410.63 308.961 410.62 332.67 410.649 356.378C410.649 358.109 409.804 360.557 411.141 361.423C412.843 362.524 414.535 360.39 416.079 359.486C516.441 300.868 616.755 242.172 717.177 183.652C720.845 181.509 720.786 180.191 718.908 176.906C698.597 141.476 678.395 105.997 658.34 70.4288C656.373 66.9477 655.143 66.3086 651.484 68.4424C572.504 114.493 493.456 160.416 414.338 206.23C411.456 207.902 410.551 209.632 410.571 212.789C410.679 236.94 410.63 261.091 410.63 285.252Z" fill="#B4F000"/>
<path d="M244.103 458.085C245.48 458.38 246.503 457.407 247.634 456.758C289.121 432.813 330.597 408.869 372.055 384.875C373.363 384.118 375.684 383.832 375.507 382.043C375.408 381.05 373.451 380.125 372.192 379.398C352.432 367.941 332.633 356.544 312.874 345.088C231.395 297.838 149.927 250.578 68.4976 203.259C66.2059 201.922 65.2027 202.079 63.8454 204.489C55.5146 219.229 46.9969 233.861 38.5481 248.533C26.0372 270.255 13.605 292.017 0.92689 313.641C-0.755002 316.512 -0.0763438 317.427 2.38256 318.813C10.5559 323.405 18.6113 328.204 26.7257 332.905C97.6897 374.058 168.654 415.211 239.618 456.374C240.995 457.171 242.264 458.243 244.123 458.085H244.103Z" fill="#B4F000"/>
<path d="M410.482 402.781C410.482 405.859 410.482 407.924 410.482 409.989C410.482 527.057 410.502 644.135 410.384 761.203C410.384 764.625 411.535 764.959 414.377 764.95C455.5 764.881 496.632 764.861 537.755 764.979C540.991 764.979 541.965 764.291 541.965 760.879C541.866 668.552 541.876 576.234 541.935 483.907C541.935 481.233 541.168 479.728 538.758 478.322C503.94 457.898 469.201 437.326 434.432 416.813C426.75 412.28 419.049 407.806 410.492 402.791L410.482 402.781Z" fill="#B4F000"/>
<path d="M386.513 180.485C386.513 121.946 386.474 63.4069 386.601 4.8777C386.601 1.03279 385.775 -0.0193977 381.802 0.000269333C341.859 0.167439 301.917 0.0986046 261.974 0.108438C256.034 0.108438 256.014 0.108438 256.014 5.92989C256.014 97.5096 256.034 189.099 255.925 280.679C255.925 284.12 257.027 285.871 259.958 287.582C300.559 311.202 341.072 334.97 381.615 358.688C382.972 359.485 384.457 361.343 385.795 360.586C387.428 359.662 386.483 357.351 386.483 355.669C386.523 297.278 386.523 238.896 386.523 180.505L386.513 180.485Z" fill="#B4F000"/>
<path d="M411.367 180.682C414.889 178.676 417.78 177.043 420.652 175.381C460.073 152.568 499.455 129.695 538.955 107.028C541.827 105.386 542.821 103.803 542.811 100.617C542.712 68.6183 542.683 36.62 542.84 4.62177C542.86 0.904695 541.896 1.10688e-05 538.217 0.00984464C497.4 0.147514 456.592 0.157348 415.774 0.00984464C411.928 1.10688e-05 411.269 1.18003 411.279 4.72994C411.397 57.3196 411.358 109.91 411.358 162.49C411.358 168.262 411.358 174.034 411.358 180.691L411.367 180.682Z" fill="#B4F000"/>
<path d="M565.836 571.032C565.836 594.889 565.915 618.755 565.747 642.611C565.728 645.993 566.78 647.724 569.682 649.425C595.894 664.815 621.987 680.391 648.111 695.938C652.901 698.79 652.871 698.849 655.763 693.981C676.821 658.521 697.85 623.052 719.006 587.651C720.727 584.77 720.363 583.551 717.481 581.889C692.401 567.414 667.438 552.742 642.406 538.198C618.27 524.176 594.044 510.281 569.947 496.189C566.534 494.193 565.747 494.478 565.777 498.559C565.915 522.72 565.846 546.871 565.846 571.032H565.836Z" fill="#B4F000"/>
<path d="M220.242 473.111C213.14 468.922 206.649 465.067 200.138 461.252C164.07 440.12 127.974 419.037 91.9655 397.786C89.3099 396.213 87.4805 396.272 84.933 397.776C58.5047 413.471 32.0469 429.126 5.47103 444.574C2.14659 446.502 2.15643 448.016 3.81865 450.936C9.79871 461.429 15.6804 471.98 21.4441 482.6C35.0566 507.656 48.5707 532.761 62.1439 557.837C65.1733 563.422 65.1536 563.334 70.6222 560.148C101.231 542.329 131.878 524.56 162.497 506.752C181.479 495.718 200.443 484.656 220.242 473.121V473.111Z" fill="#B4F000"/>
<path d="M230.884 271.032C231.022 269.823 231.14 269.252 231.14 268.692C231.14 219.357 231.12 170.012 231.238 120.677C231.238 117.875 229.881 116.842 227.894 115.692C201.239 100.184 174.545 84.7159 148.019 68.9921C144.724 67.0352 143.583 67.5663 141.812 70.5557C120.794 105.947 99.6962 141.288 78.5004 176.581C76.6808 179.61 76.7497 180.927 80.084 182.874C124.757 208.894 169.332 235.11 213.927 261.267C219.445 264.503 225.022 267.669 230.884 271.042V271.032Z" fill="#B4F000"/>
<path d="M386.808 675.288C386.808 646.702 386.808 618.116 386.808 589.53C386.808 588.36 387.152 586.826 386.129 586.197C384.605 585.263 383.405 586.816 382.205 587.524C341.289 611.577 300.412 635.699 259.437 659.643C256.673 661.256 255.945 662.938 255.955 665.888C256.043 697.296 256.083 728.704 255.915 760.103C255.896 763.948 256.732 765.01 260.715 764.99C301.09 764.823 341.466 764.813 381.831 765C386.169 765.02 386.896 763.544 386.887 759.719C386.759 731.576 386.818 703.422 386.808 675.279V675.288Z" fill="#B4F000"/>
<path d="M795.094 317.368C794.632 316.286 794.347 315.47 793.944 314.703C790.177 307.554 786.459 300.375 782.583 293.285C775.649 280.6 768.43 268.072 761.653 255.298C753.067 239.142 743.487 223.536 735.254 207.183C734.517 205.728 733.651 202.669 730.356 204.528C720.452 210.094 710.597 215.777 700.731 221.412C693.709 225.424 686.794 229.712 679.811 233.832C664.89 242.643 649.803 251.149 634.813 259.832C621.997 267.246 609.221 274.72 596.425 282.173C592.038 284.73 587.602 287.189 583.333 289.922C581.091 291.358 579.802 293.089 583.658 294.524C586.343 295.527 589.028 296.757 591.369 298.379C604.224 307.308 618.26 314.26 631.587 322.383C645.15 330.643 659.156 338.175 672.897 346.141C684.522 352.886 696.079 359.77 707.607 366.683C709.269 367.676 710.567 367.45 712.062 366.545C715.16 364.687 718.318 362.907 721.435 361.097C732.186 354.853 742.946 348.619 753.696 342.374C765.45 335.55 777.223 328.775 788.927 321.881C791.101 320.603 793.019 318.902 795.085 317.368H795.094Z" fill="#B4F000"/>
</svg>
